
		<svg xmlns="http://www.w3.org/2000/svg" xmlns:xlink="http://www.w3.org/1999/xlink" version="1.1" width="3144.0875219127242" height="2110.8821960214113">
			<rect fill="#000" width="3144.0875219127242" height="2110.8821960214113"/>
			<g transform="scale(7.204376095636216) translate(10, 10)">
				<defs id="SvgjsDefs3061"><linearGradient id="SvgjsLinearGradient3066"><stop id="SvgjsStop3067" stop-color="#b88746" offset="0"></stop><stop id="SvgjsStop3068" stop-color="#fdf5a6" offset="1"></stop></linearGradient></defs><g id="SvgjsG3062" featureKey="root" fill="#000000" transform="matrix(1,0,0,1,0,0)"></g><g id="SvgjsG3063" featureKey="symbol1" fill="#c64e4e" transform="matrix(1.6523130661286123,0,0,1.6523130661286123,124.914569123653,-2.4155793263490475)"><path d="M60.691,85.293c-0.1,0.035-0.21,0.075-0.31,0.105c-1.319,0.415-2.679,0.715-4.058,0.895c-2,0.255-4.02,0.391-6.039,0.391  c-2.02,0-4.033-0.136-6.037-0.391c-1.375-0.18-2.735-0.479-4.06-0.895c-0.1-0.03-0.205-0.07-0.309-0.105l-9.482-46.208  c-2.374-11.551-1.469-23.532,2.61-34.597h34.557c4.078,11.065,4.982,23.046,2.613,34.597L60.691,85.293z M39.33,45.008  c0,1.255,1.02,2.274,2.274,2.274c1.254,0,2.274-1.02,2.274-2.274V26h22.262c-0.031-5.478-0.846-10.926-2.415-16.184h-26.88  C35.281,15.074,34.471,20.522,34.437,26h4.893V45.008z"></path><g><path d="M38.085,79.41c-2.044,0.59-3.958,1.551-5.653,2.839c-1.549,1.175-2.464,3.01-2.464,4.959s0.916,3.793,2.464,4.968   c1.58,1.199,3.358,2.114,5.248,2.709c1.789,0.561,3.629,0.965,5.488,1.209c2.36,0.311,4.739,0.461,7.118,0.461   c2.384,0,4.759-0.15,7.123-0.461c1.864-0.244,3.698-0.648,5.488-1.209c1.895-0.595,3.662-1.51,5.243-2.709   c1.554-1.175,2.468-3.019,2.468-4.968s-0.914-3.784-2.468-4.959C66.445,80.961,64.53,80,62.486,79.41l-0.585,2.854l-0.71,3.458   c-0.21,0.08-0.42,0.155-0.635,0.226c-1.359,0.42-2.749,0.729-4.158,0.915c-2.023,0.264-4.068,0.395-6.113,0.395   c-2.045,0-4.083-0.131-6.112-0.395c-1.41-0.186-2.799-0.495-4.154-0.915c-0.214-0.07-0.425-0.146-0.634-0.226l-0.709-3.458   L38.085,79.41z"></path></g></g><g id="SvgjsG3064" featureKey="text1" fill="url(#SvgjsLinearGradient3066)" transform="matrix(4.0524577796814745,0,0,4.0524577796814745,31.19822613592032,125.03493101961334)"><path d="M14.169 23.62712 c0.10169 0.20339 0.034229 0.37271 -0.20305 0.37271 l-1.9831 0 c-0.16949 0 -0.27119 -0.08458 -0.33898 -0.22017 l-0.91525 -1.9322 l-6.5256 0 l-0.91525 1.9322 c-0.067797 0.13559 -0.18644 0.22017 -0.33898 0.22017 l-2 0 c-0.20339 0 -0.32203 -0.16933 -0.22034 -0.37271 l6.3898 -13.102 c0.067797 -0.11881 0.15238 -0.16966 0.23712 -0.16966 l0.20339 0 c0.10169 0 0.16949 0.050847 0.23729 0.16966 z M5.2375 19.6441 l4.4576 0 l-2.2203 -4.7288 z M18.18630508474576 10.441 l-1.6949 -0.00016552 c-0.18661 0 -0.3222 0.15254 -0.3222 0.32203 l0 12.373 c0 0.49153 0.30525 0.86441 0.83068 0.86441 l1.1864 0 c0.18644 0 0.32203 -0.13543 0.32203 -0.33881 l0 -12.898 c0 -0.16949 -0.15254 -0.32203 -0.32203 -0.32203 z M22.135615254237287 12.966 c-0.69492 0 -1.2542 -0.55932 -1.2542 -1.2542 s0.55932 -1.2712 1.2542 -1.2712 c0.69475 0 1.271 0.57627 1.271 1.2712 s-0.57627 1.2542 -1.271 1.2542 z M23.000015254237287 15.6103 l-1.6951 0 c-0.18644 0 -0.32203 0.15254 -0.32203 0.32203 l0 7.2032 c0 0.49153 0.30508 0.86441 0.83051 0.86441 l1.2034 0 c0.16949 0 0.30508 -0.13543 0.30508 -0.33881 l0 -7.7288 c0 -0.16949 -0.15254 -0.32203 -0.32186 -0.32203 z M32.237320338983054 20.5934 c0.74576 0 1.2375 -0.40695 1.2375 -1.2205 c0 -1.9831 -1.5593 -3.8814 -4.0678 -3.8814 c-2.3729 0 -4.2203 1.8475 -4.2203 4.3051 c0 2.5763 1.949 4.288 4.3219 4.288 c1.5085 0 2.7119 -0.52542 3.4068 -1.5085 c0.11864 -0.15254 0.084746 -0.27119 -0.050847 -0.44068 l-0.38983 -0.5422 c-0.16949 -0.22034 -0.32203 -0.18644 -0.52542 -0.084746 c-0.45763 0.25424 -1.339 0.52542 -2.1695 0.52542 c-1.0169 0 -1.9322 -0.49153 -2.1356 -1.4405 l4.5932 0 z M27.66102033898305 18.796599999999998 c0.084746 -0.54237 0.72881 -1.1695 1.6949 -1.1695 c0.98305 0 1.5932 0.61017 1.678 1.1695 l-3.3729 0 z M43.406745762711864 23.57644 c0.033898 0.22034 -0.033732 0.42356 -0.20322 0.42356 l-1.4237 0 c-0.54237 0 -0.84746 -0.37288 -0.84746 -0.84746 l0 -4.1864 c0 -0.94915 -0.72881 -1.3898 -1.5254 -1.3898 c-0.74576 0 -1.3898 0.33898 -1.9661 0.86441 l0 5.2373 c0 0.16949 -0.15254 0.32186 -0.32203 0.32186 l-1.7119 0 c-0.16949 0 -0.30508 -0.15238 -0.30508 -0.32186 l0 -7.7456 c0 -0.16949 0.13559 -0.32203 0.30508 -0.32203 l1.1695 0 c0.42373 0 0.71169 0.35593 0.81356 0.69492 c0.61017 -0.42373 1.3898 -0.81356 2.3559 -0.81356 c1.7456 0 3.5254 1.1697 3.5254 3.2542 l0 3.7288 c0.016784 0.47458 0.067631 0.79661 0.13543 1.1017 z M52.983086440677965 16.644199999999998 c1.2712 0.74576 2.0847 1.9998 2.0847 3.4744 c0 2.3051 -2.0339 3.8814 -3.9661 3.8814 l-5.5593 0 c-0.18644 0 -0.33898 -0.15238 -0.33898 -0.33881 l0 -12.898 c0 -0.16949 0.13543 -0.32203 0.32203 -0.32203 l4.9831 0 c2.1356 0 3.7966 2.0508 3.7966 3.6271 c0 1.0678 -0.52542 1.9661 -1.322 2.5763 z M50.084786440677966 15.9661 c2.2373 0 2.2542 -3.1864 0 -3.1864 l-2.4576 0 l0 3.1864 l2.4576 0 z M50.49168644067797 21.661 c2.6949 0 2.7288 -3.4237 -0.016949 -3.4237 l-2.8475 0 l0 3.4237 l2.8644 0 z M63.2371 15.9663 c0.22034 0.15254 0.30525 0.27119 0.13592 0.50847 l-0.88136 1.2881 c-0.10169 0.15254 -0.23729 0.20339 -0.44068 0.15254 c-0.23729 -0.084746 -0.47458 -0.20339 -0.98322 -0.20339 c-0.50847 0 -1.4576 0.22034 -1.7119 1.322 l0 4.6441 c0 0.16949 -0.13559 0.32186 -0.32203 0.32186 l-1.7119 0 c-0.16949 0 -0.30508 -0.15238 -0.30508 -0.32186 l0 -7.7456 c0 -0.16949 0.13559 -0.32203 0.30508 -0.32203 l1.1695 0 c0.45763 0 0.76271 0.40678 0.84729 0.76271 c0.50864 -0.44068 1.1697 -0.83068 2.1356 -0.83068 c0.86441 0 1.4746 0.22034 1.7627 0.42373 z M71.45765932203389 20.5934 c0.74576 0 1.2375 -0.40695 1.2375 -1.2205 c0 -1.9831 -1.5593 -3.8814 -4.0678 -3.8814 c-2.3729 0 -4.2203 1.8475 -4.2203 4.3051 c0 2.5763 1.949 4.288 4.3219 4.288 c1.5085 0 2.7119 -0.52542 3.4068 -1.5085 c0.11864 -0.15254 0.084746 -0.27119 -0.050847 -0.44068 l-0.38983 -0.5422 c-0.16949 -0.22034 -0.32203 -0.18644 -0.52542 -0.084746 c-0.45763 0.25424 -1.339 0.52542 -2.1695 0.52542 c-1.0169 0 -1.9322 -0.49153 -2.1356 -1.4405 l4.5932 0 z M66.8813593220339 18.796599999999998 c0.084746 -0.54237 0.72881 -1.1695 1.6949 -1.1695 c0.98305 0 1.5932 0.61017 1.678 1.1695 l-3.3729 0 z M86.55908474576272 15.6102 c0.23729 0 0.35559 0.15254 0.2539 0.38966 l-3.2712 7.7798 c-0.033898 0.11864 -0.16949 0.22017 -0.30492 0.22017 l-0.23729 0 c-0.15254 0 -0.28814 -0.10153 -0.35593 -0.22017 l-2.3388 -4.4068 l-2.3559 4.4068 c-0.067797 0.11864 -0.20339 0.22017 -0.35593 0.22017 l-0.23729 0 c-0.15254 0 -0.27119 -0.10153 -0.32203 -0.22017 l-3.2542 -7.7798 c-0.10153 -0.23712 0.017115 -0.38966 0.25441 -0.38966 l1.7627 0 c0.16949 0 0.32203 0.10169 0.38983 0.23729 l1.6271 4.2712 l1.9492 -4.2034 c0.067797 -0.13559 0.20339 -0.22034 0.38983 -0.22034 l0.28797 0 c0.20339 0 0.3222 0.084746 0.37305 0.22034 l1.9659 4.2034 l1.6271 -4.2712 c0.067797 -0.13559 0.20339 -0.23729 0.37271 -0.23729 l1.7798 0 z"></path></g><g id="SvgjsG3065" featureKey="text3" fill="#c64e4e" transform="matrix(1.7691382139432288,0,0,1.7691382139432288,5.707655454295459,216.8654630656629)"><path d="M10.2 19.98 q-2.46 4.14 -4.16 4.14 q-1.18 0 -1.18 -1.36 q0 -1.58 1.26 -4.5 q0.28 -0.74 0.28 -1.02 q0 -0.4 -0.36 -0.4 q-0.24 0 -0.81 0.28 t-1.09 0.82 t-0.87 1.25 t-0.56 1.23 t-0.43 1.27 t-0.39 1.22 t-0.35 1.09 l-1.94 0 q0.54 -1.38 1.55 -4.41 t1.73 -4.76 t1.41 -2.92 t1.58 -1.99 t1.88 -0.8 t0.99 0.94 q0 0.66 -0.54 1.74 q-1.16 2.28 -3.88 5.28 q1.08 -0.78 1.71 -1.02 t1.21 -0.24 q1.14 0 1.14 1 q0 0.4 -0.14 0.74 t-0.31 0.78 t-0.28 0.72 t-0.29 0.76 t-0.28 0.82 q-0.26 0.84 -0.26 1.34 t0.34 0.5 q1.2 0 3 -3.48 q0.06 -0.14 0.15 -0.14 t0.09 0.37 t-0.2 0.75 z M7.78 9.62 q-0.7 0 -1.83 2.22 t-2.21 5.1 q2.74 -3.22 3.74 -5.28 q0.56 -1.26 0.56 -1.65 t-0.26 -0.39 z M17.367453374910482 12.54 q-0.98 0.68 -2.2 3.48 l2.02 0 l0.02 0.02 q0 0.1 -0.22 0.35 t-0.38 0.25 l-1.72 0 q-1.58 3.92 -1.58 5.04 q0 0.76 0.48 0.76 q0.7 0 1.64 -1.2 q0.22 -0.26 0.58 -0.88 q0.92 -1.48 0.96 -1.48 q0.12 0 0.12 0.32 q-0.02 0.76 -1.66 2.96 q-0.54 0.72 -1.3 1.34 t-1.38 0.62 q-1.14 0 -1.14 -1.6 q0 -1.34 0.64 -3.08 l0 -0.02 q-0.38 0.7 -0.65 1.04 t-0.31 0.34 q-0.08 0 -0.08 -0.25 t0.27 -0.81 t0.74 -1.46 t0.77 -1.64 l-1.34 0 q-0.06 0 -0.06 -0.09 t0.15 -0.31 t0.23 -0.22 l1.52 0 q1.44 -3.46 2.92 -3.46 q0.86 0 0.96 -0.02 z M24.034906749820962 12.54 q-0.98 0.68 -2.2 3.48 l2.02 0 l0.02 0.02 q0 0.1 -0.22 0.35 t-0.38 0.25 l-1.72 0 q-1.58 3.92 -1.58 5.04 q0 0.76 0.48 0.76 q0.7 0 1.64 -1.2 q0.22 -0.26 0.58 -0.88 q0.92 -1.48 0.96 -1.48 q0.12 0 0.12 0.32 q-0.02 0.76 -1.66 2.96 q-0.54 0.72 -1.3 1.34 t-1.38 0.62 q-1.14 0 -1.14 -1.6 q0 -1.34 0.64 -3.08 l0 -0.02 q-0.38 0.7 -0.65 1.04 t-0.31 0.34 q-0.08 0 -0.08 -0.25 t0.27 -0.81 t0.74 -1.46 t0.77 -1.64 l-1.34 0 q-0.06 0 -0.06 -0.09 t0.15 -0.31 t0.23 -0.22 l1.52 0 q1.44 -3.46 2.92 -3.46 q0.86 0 0.96 -0.02 z M33.24236012473144 19.72 q-1.2 2.2 -2.6 3.42 t-3.32 1.22 t-2.16 -0.98 l-1.12 3.5 q-0.4 1.18 -0.61 1.53 t-0.47 0.45 t-0.66 0.1 l-0.96 0 q0.52 -0.76 2.1 -5.25 t2.09 -5.73 t0.75 -1.5 q0.48 -0.48 1.66 -0.48 l0.6 0 q-0.58 0.4 -1.58 2.4 q1.86 -2.48 3.28 -2.48 q1.34 0 1.34 1.84 q0 1.52 -0.96 3.12 t-2.26 2.48 l0.16 0 q0.82 0 1.67 -0.66 t1.47 -1.46 q0.34 -0.44 0.96 -1.49 t0.66 -1.05 q0.16 0 0.16 0.34 t-0.2 0.68 z M29.34236012473144 17.62 q-0.06 -0.02 -0.18 -0.02 q-0.42 0 -0.92 0.4 q-0.82 0.64 -1.74 2.12 t-0.92 2.42 t0.58 0.94 q1.04 0 2.26 -2.06 t1.22 -3.22 q0 -0.5 -0.3 -0.58 z M37.78981349964192 23.02 q-0.22 0.04 -0.65 0.46 t-0.57 0.68 q-0.98 -0.32 -0.98 -0.82 q0 -0.36 0.43 -0.7 t0.99 -0.34 q0.82 0 0.82 0.5 q0 0.06 -0.04 0.22 z M39.86981349964192 16.92 q-0.22 0.04 -0.65 0.46 t-0.57 0.68 q-0.98 -0.32 -0.98 -0.82 q0 -0.36 0.43 -0.7 t0.99 -0.34 q0.82 0 0.82 0.5 q0 0.06 -0.04 0.22 z M54.27726687455241 10.12 l-11.12 15.04 q-0.04 0.06 -0.54 0.06 t-0.5 -0.14 l0 -0.02 l11.12 -15.04 q0.06 -0.06 0.55 -0.06 t0.49 0.14 l0 0.02 z M65.0647202494629 10.12 l-11.12 15.04 q-0.04 0.06 -0.54 0.06 t-0.5 -0.14 l0 -0.02 l11.12 -15.04 q0.06 -0.06 0.55 -0.06 t0.49 0.14 l0 0.02 z M70.45217362437337 16.44 l1.08 0.02 q0.34 0 0.4 -0.02 q-0.74 0.44 -1.76 3.36 q-0.58 1.54 -0.58 2.35 t0.6 0.81 q0.7 0 1.43 -0.81 t1.1 -1.55 t0.59 -1.34 q-0.1 -0.5 -0.1 -1.22 t0.37 -1.4 t0.93 -0.68 q0.64 0 0.64 0.9 q0 0.8 -0.2 1.26 t-0.4 0.85 t-0.28 0.55 q0 0.58 0.31 0.94 t0.71 0.36 q0.94 0 1.9 -1.74 q0.06 -0.1 0.11 -0.1 t0.05 0.28 q0 1.08 -0.74 1.66 t-1.48 0.58 q-1.08 0 -1.42 -1.12 l-0.06 -0.2 q-1.24 2.16 -2.19 3.06 t-2.25 0.9 q-1.68 0 -1.68 -1.9 q0 -0.34 0.08 -0.78 q-1.9 2.66 -3.72 2.66 q-0.5 0 -0.83 -0.44 t-0.33 -1.23 t0.56 -2.45 q1.06 -3.2 2.32 -3.74 q0.6 -0.26 1.68 -0.26 q0.06 0 0.06 0.08 q0 -0.06 -0.14 0.14 q-0.76 1.08 -1.56 2.86 q-0.16 0.4 -0.5 1.4 t-0.34 1.67 t0.5 0.67 q1 0 2.9 -3.64 q0.8 -1.54 0.82 -1.56 q0.74 -1.18 1.42 -1.18 z M85.67962699928385 16.44 l1.08 0.02 q0.34 0 0.4 -0.02 q-0.74 0.44 -1.76 3.36 q-0.58 1.54 -0.58 2.35 t0.6 0.81 q0.7 0 1.43 -0.81 t1.1 -1.55 t0.59 -1.34 q-0.1 -0.5 -0.1 -1.22 t0.37 -1.4 t0.93 -0.68 q0.64 0 0.64 0.9 q0 0.8 -0.2 1.26 t-0.4 0.85 t-0.28 0.55 q0 0.58 0.31 0.94 t0.71 0.36 q0.94 0 1.9 -1.74 q0.06 -0.1 0.11 -0.1 t0.05 0.28 q0 1.08 -0.74 1.66 t-1.48 0.58 q-1.08 0 -1.42 -1.12 l-0.06 -0.2 q-1.24 2.16 -2.19 3.06 t-2.25 0.9 q-1.68 0 -1.68 -1.9 q0 -0.34 0.08 -0.78 q-1.9 2.66 -3.72 2.66 q-0.5 0 -0.83 -0.44 t-0.33 -1.23 t0.56 -2.45 q1.06 -3.2 2.32 -3.74 q0.6 -0.26 1.68 -0.26 q0.06 0 0.06 0.08 q0 -0.06 -0.14 0.14 q-0.76 1.08 -1.56 2.86 q-0.16 0.4 -0.5 1.4 t-0.34 1.67 t0.5 0.67 q1 0 2.9 -3.64 q0.8 -1.54 0.82 -1.56 q0.74 -1.18 1.42 -1.18 z M100.90708037419434 16.44 l1.08 0.02 q0.34 0 0.4 -0.02 q-0.74 0.44 -1.76 3.36 q-0.58 1.54 -0.58 2.35 t0.6 0.81 q0.7 0 1.43 -0.81 t1.1 -1.55 t0.59 -1.34 q-0.1 -0.5 -0.1 -1.22 t0.37 -1.4 t0.93 -0.68 q0.64 0 0.64 0.9 q0 0.8 -0.2 1.26 t-0.4 0.85 t-0.28 0.55 q0 0.58 0.31 0.94 t0.71 0.36 q0.94 0 1.9 -1.74 q0.06 -0.1 0.11 -0.1 t0.05 0.28 q0 1.08 -0.74 1.66 t-1.48 0.58 q-1.08 0 -1.42 -1.12 l-0.06 -0.2 q-1.24 2.16 -2.19 3.06 t-2.25 0.9 q-1.68 0 -1.68 -1.9 q0 -0.34 0.08 -0.78 q-1.9 2.66 -3.72 2.66 q-0.5 0 -0.83 -0.44 t-0.33 -1.23 t0.56 -2.45 q1.06 -3.2 2.32 -3.74 q0.6 -0.26 1.68 -0.26 q0.06 0 0.06 0.08 q0 -0.06 -0.14 0.14 q-0.76 1.08 -1.56 2.86 q-0.16 0.4 -0.5 1.4 t-0.34 1.67 t0.5 0.67 q1 0 2.9 -3.64 q0.8 -1.54 0.82 -1.56 q0.74 -1.18 1.42 -1.18 z M112.41453374910482 23.02 q-0.22 0.04 -0.65 0.46 t-0.57 0.68 q-0.98 -0.32 -0.98 -0.82 q0 -0.36 0.43 -0.7 t0.99 -0.34 q0.82 0 0.82 0.5 q0 0.06 -0.04 0.22 z M123.9819871240153 16 l1 0.02 l0.2 0 q-0.66 0.54 -1.62 2.73 t-0.96 3.19 q0 0.52 0.36 0.52 q1.16 0 2.96 -3.42 q0.08 -0.14 0.14 -0.14 q0.12 0 0.12 0.37 t-0.2 0.71 q-2.46 4.14 -4.12 4.14 q-1.08 0 -1.08 -1.66 q0 -1.24 0.42 -2.44 q-2.28 4.04 -4.22 4.04 q-1.34 0 -1.34 -1.84 q0 -1.4 0.61 -2.84 t1.75 -2.45 t2.5 -1.01 q0.64 0 1.2 0.29 t0.74 0.93 q0.22 -0.46 0.68 -0.8 t0.86 -0.34 z M122.3219871240153 17.32 q-0.2 -0.64 -0.94 -0.64 q-1.32 0 -2.56 1.83 t-1.24 3.27 q0 0.62 0.48 0.62 q0.52 0 1.22 -0.65 t1.26 -1.53 q1.24 -1.96 1.78 -2.9 z M134.5294404989258 11.8 q-0.72 1.46 -2.2 3.31 t-2.66 2.97 l-0.32 0.92 q-0.24 0.7 -0.46 1.7 t-0.2 1.42 q0 0.6 0.44 0.6 t1.05 -0.5 t0.89 -0.87 t0.65 -0.97 t0.64 -1.04 t0.31 -0.44 q0.12 0 0.12 0.37 t-0.2 0.71 q-1.1 1.86 -1.78 2.62 q-1.38 1.52 -2.84 1.52 q-1.12 0 -1.12 -1.52 q0 -1.5 1.34 -5.24 q0.1 -0.32 0.46 -1.34 t0.62 -1.59 t0.7 -1.51 t0.85 -1.5 t0.91 -1.14 q0.98 -1.16 2.12 -1.16 t1.14 1.04 q0 0.8 -0.46 1.64 z M134.10944049892578 9.62 l-0.14 0 q-1.22 0 -3.9 7.32 q2.74 -3.22 3.74 -5.28 q0.56 -1.26 0.56 -1.65 t-0.26 -0.39 z M139.27689387383626 13.36 l-0.08 0 q-0.4 0 -0.77 0.34 t-0.53 0.7 q-0.52 -0.2 -0.52 -0.72 t0.48 -1.05 t0.92 -0.53 t0.66 0.2 t0.22 0.51 t-0.38 0.55 z M136.55689387383626 16 l1 0.02 l0.2 0 q-0.32 0.24 -0.85 1.3 t-0.79 1.6 t-0.59 1.46 t-0.33 1.5 t0.38 0.58 q0.26 0 0.73 -0.35 t0.77 -0.74 t0.67 -0.99 t0.64 -1.04 t0.31 -0.44 q0.12 0 0.12 0.37 t-0.2 0.71 q-0.74 1.24 -1.35 2.07 t-1.39 1.45 t-1.42 0.62 q-1.12 0 -1.12 -1.56 q0 -2.42 1.66 -5.36 q0.7 -1.2 1.56 -1.2 z M147.58434724874675 18.8 q0.12 0 0.12 0.39 t-0.32 0.93 t-0.63 1.02 t-0.83 1.12 t-1.02 1.02 q-1.26 0.92 -2.53 0.92 t-2.05 -0.65 t-0.78 -1.99 q0 -2.04 1.5 -3.78 t3.5 -1.74 q0.9 0 1.44 0.47 t0.54 1.13 q0 1.12 -1.06 1.8 t-2.5 0.68 q-0.84 0 -1.24 -0.22 q-0.38 1.02 -0.38 1.8 q0 1.68 1.42 1.68 q0.84 0 1.73 -0.65 t1.52 -1.46 t1.43 -2.33 q0.08 -0.14 0.14 -0.14 z M145.46434724874675 17.22 q0 -0.58 -0.56 -0.58 q-0.78 0 -1.74 0.96 t-0.96 1.56 q0 0.4 0.76 0.4 t1.59 -0.74 t0.91 -1.6 z M157.87180062365724 19.98 q-0.74 1.24 -1.35 2.07 t-1.39 1.45 t-1.42 0.62 q-1.18 0 -1.18 -1.3 t1.5 -5.22 q0.08 -0.18 0.08 -0.38 q0 -0.42 -0.53 -0.42 t-1.04 0.33 t-0.93 0.94 t-0.76 1.24 t-0.63 1.45 t-0.46 1.37 t-0.34 1.18 t-0.19 0.69 l-1.94 0 q0 -0.42 1.76 -4.82 q0.72 -2.06 0.72 -2.88 q0 -0.2 -0.06 -0.3 l0.84 0 q0.7 0 0.9 0.14 t0.2 0.38 t-0.22 0.98 q1.68 -1.6 3.38 -1.6 q1.14 0 1.14 1.04 q0 0.34 -0.1 0.68 t-0.5 1.36 q-0.88 2.24 -0.88 3 q0 0.48 0.36 0.48 q0.26 0 0.73 -0.36 t0.78 -0.75 t0.68 -0.98 t0.63 -1.03 t0.3 -0.44 q0.12 0 0.12 0.37 t-0.2 0.71 z M168.51925399856773 18.88 q0.12 0 0.12 0.37 t-0.12 0.57 l-0.44 0.74 q-0.98 1.62 -1.6 2.16 q-0.68 0.62 -1.32 0.62 q-0.84 0 -1.12 -0.78 q-0.82 0.82 -1.66 1.23 t-1.88 0.41 t-1.47 -0.33 t-0.43 -1.1 t0.24 -1.75 q0.62 -2.64 2.08 -6.21 t2.3 -3.79 q0.26 -0.06 0.95 -0.07 t0.83 -0.03 q-0.78 0.58 -2.11 3.4 t-2.01 5.42 q2.16 -3.82 4.08 -3.82 q1.36 0 1.36 1.95 t-1.64 3.97 q0.02 0.34 0.2 0.54 t0.46 0.2 t0.61 -0.25 t0.5 -0.44 t0.45 -0.55 t0.66 -0.97 t0.65 -1.05 t0.31 -0.44 z M164.07925399856774 17.62 q-0.06 -0.02 -0.31 -0.02 t-0.94 0.52 t-1.61 1.99 t-0.92 2.42 t0.58 0.95 q1.06 0 2.28 -2.05 t1.22 -3.23 q0 -0.5 -0.3 -0.58 z M174.74670737347822 15.96 l1.02 0.02 l0.2 0 q-0.3 0.22 -0.85 1.3 t-0.82 1.63 t-0.6 1.48 t-0.33 1.51 t0.4 0.58 q0.26 -0.02 0.73 -0.37 t0.78 -0.74 t0.68 -1 t0.64 -1.06 t0.31 -0.45 q0.14 0 0.14 0.37 t-0.2 0.71 q-0.86 1.42 -1.42 2.18 t-1.35 1.39 t-1.43 0.63 q-1.14 0 -1.14 -1.68 q0 -1.14 0.44 -2.58 t1.3 -2.78 q-0.7 0.56 -1.4 0.56 q-0.22 0 -0.46 -0.1 q-1.42 2.8 -1.53 2.8 t-0.11 -0.33 t0.25 -0.92 t0.54 -1.13 t0.31 -0.6 q-0.72 -0.36 -0.72 -1.16 q0 -0.4 0.25 -0.72 t0.69 -0.32 t0.72 0.28 q-0.04 0.12 -0.04 0.36 q0 0.54 0.39 0.85 t0.95 0.31 q0.16 0 0.24 -0.02 q0.7 -1 1.42 -1 z M185.7941607483887 18.8 q0.12 0 0.12 0.39 t-0.32 0.93 t-0.63 1.02 t-0.83 1.12 t-1.02 1.02 q-1.26 0.92 -2.53 0.92 t-2.05 -0.65 t-0.78 -1.99 q0 -2.04 1.5 -3.78 t3.5 -1.74 q0.9 0 1.44 0.47 t0.54 1.13 q0 1.12 -1.06 1.8 t-2.5 0.68 q-0.84 0 -1.24 -0.22 q-0.38 1.02 -0.38 1.8 q0 1.68 1.42 1.68 q0.84 0 1.73 -0.65 t1.52 -1.46 t1.43 -2.33 q0.08 -0.14 0.14 -0.14 z M183.6741607483887 17.22 q0 -0.58 -0.56 -0.58 q-0.78 0 -1.74 0.96 t-0.96 1.56 q0 0.4 0.76 0.4 t1.59 -0.74 t0.91 -1.6 z M194.08161412329918 16.44 l1.08 0.02 q0.34 0 0.4 -0.02 q-0.74 0.44 -1.76 3.36 q-0.58 1.54 -0.58 2.35 t0.6 0.81 q0.7 0 1.43 -0.81 t1.1 -1.55 t0.59 -1.34 q-0.1 -0.5 -0.1 -1.22 t0.37 -1.4 t0.93 -0.68 q0.64 0 0.64 0.9 q0 0.8 -0.2 1.26 t-0.4 0.85 t-0.28 0.55 q0 0.58 0.31 0.94 t0.71 0.36 q0.94 0 1.9 -1.74 q0.06 -0.1 0.11 -0.1 t0.05 0.28 q0 1.08 -0.74 1.66 t-1.48 0.58 q-1.08 0 -1.42 -1.12 l-0.06 -0.2 q-1.24 2.16 -2.19 3.06 t-2.25 0.9 q-1.68 0 -1.68 -1.9 q0 -0.34 0.08 -0.78 q-1.9 2.66 -3.72 2.66 q-0.5 0 -0.83 -0.44 t-0.33 -1.23 t0.56 -2.45 q1.06 -3.2 2.32 -3.74 q0.6 -0.26 1.68 -0.26 q0.06 0 0.06 0.08 q0 -0.06 -0.14 0.14 q-0.76 1.08 -1.56 2.86 q-0.16 0.4 -0.5 1.4 t-0.34 1.67 t0.5 0.67 q1 0 2.9 -3.64 q0.8 -1.54 0.82 -1.56 q0.74 -1.18 1.42 -1.18 z M205.58906749820966 23.02 q-0.22 0.04 -0.65 0.46 t-0.57 0.68 q-0.98 -0.32 -0.98 -0.82 q0 -0.36 0.43 -0.7 t0.99 -0.34 q0.82 0 0.82 0.5 q0 0.06 -0.04 0.22 z M220.27652087312015 10.92 q-0.66 0.48 -1.73 2.69 t-1.89 4.66 t-0.82 3.55 q0 0.64 0.34 0.64 t0.85 -0.44 t0.73 -0.74 t0.59 -0.91 t0.64 -1.06 t0.31 -0.45 q0.14 0 0.14 0.38 q-0.02 0.7 -1.66 2.92 q-0.54 0.72 -1.3 1.34 t-1.38 0.62 q-1.06 0 -1.06 -1.58 q0 -1.16 0.58 -2.98 q-0.92 1.82 -2.1 3.16 t-2.36 1.34 q-1.34 0 -1.34 -1.84 q0 -1.4 0.61 -2.84 t1.75 -2.45 t2.47 -1.01 t1.83 0.88 q0.56 -1.1 1.15 -2.54 t0.78 -1.87 t0.28 -0.63 t0.23 -0.38 q0.22 -0.28 0.53 -0.35 t1 -0.08 t0.83 -0.03 z M215.37652087312014 17.04 q-0.24 -0.36 -0.8 -0.36 q-0.9 0 -1.81 0.91 t-1.46 2.1 t-0.55 2.09 q0 0.62 0.48 0.62 q1.62 0 4.14 -5.36 z M229.10397424803062 20.02 q-0.7 1.18 -1.42 2.14 q-1.54 2 -3.04 2 q-0.82 0 -1.23 -0.82 t-0.41 -1.82 q0 -2 0.6 -2 q0.94 0 1.74 -0.43 t0.8 -1.13 q0 -0.56 -0.64 -0.56 q-1.38 0 -3.06 3 q-0.16 0.3 -0.67 1.39 t-0.9 1.65 t-0.77 0.56 l-1.22 0 q0.62 -1.16 1.83 -4.69 t1.79 -4.73 q0.02 -0.04 0.25 -0.52 t0.32 -0.66 t0.35 -0.68 t0.42 -0.74 t0.44 -0.69 t0.5 -0.69 t0.52 -0.57 t0.56 -0.49 q0.68 -0.4 1.24 -0.4 q1.1 0 1.1 1 q0 1.4 -1.69 3.71 t-3.81 4.37 l-0.36 1 q0.96 -1.24 2.18 -2.17 t2.24 -0.93 q0.58 0 0.91 0.28 t0.33 0.76 q0 1.1 -0.97 1.77 t-2.23 0.87 q0.18 2.08 0.58 2.54 q0.2 0.22 0.5 0.22 t0.82 -0.36 t0.85 -0.79 t0.7 -1.03 t0.64 -1.04 t0.31 -0.44 q0.12 0 0.12 0.39 t-0.22 0.73 z M227.14397424803062 9.66 q-1.12 0 -3.92 7.2 q2.56 -3 3.6 -5.06 q0.6 -1.08 0.6 -1.78 q0 -0.36 -0.28 -0.36 z"></path></g>
			</g>
		</svg>
	