
		<svg xmlns="http://www.w3.org/2000/svg" xmlns:xlink="http://www.w3.org/1999/xlink" version="1.1" width="3167.0599269537674" height="2155.0730577036006">
			<rect fill="#000" width="3167.0599269537674" height="2155.0730577036006"/>
			<g transform="scale(8.352996347688375) translate(10, 10)">
				<defs id="SvgjsDefs3381"><linearGradient id="SvgjsLinearGradient3386"><stop id="SvgjsStop3387" stop-color="#b88746" offset="0"></stop><stop id="SvgjsStop3388" stop-color="#fdf5a6" offset="1"></stop></linearGradient></defs><g id="SvgjsG3382" featureKey="root" fill="#000000" transform="matrix(1,0,0,1,0,0)"></g><g id="SvgjsG3383" featureKey="symbol1" fill="#c64e4e" transform="matrix(1.6523130661286123,0,0,1.6523130661286123,96.914569123653,-2.4155793263490475)"><path d="M60.691,85.293c-0.1,0.035-0.21,0.075-0.31,0.105c-1.319,0.415-2.679,0.715-4.058,0.895c-2,0.255-4.02,0.391-6.039,0.391  c-2.02,0-4.033-0.136-6.037-0.391c-1.375-0.18-2.735-0.479-4.06-0.895c-0.1-0.03-0.205-0.07-0.309-0.105l-9.482-46.208  c-2.374-11.551-1.469-23.532,2.61-34.597h34.557c4.078,11.065,4.982,23.046,2.613,34.597L60.691,85.293z M39.33,45.008  c0,1.255,1.02,2.274,2.274,2.274c1.254,0,2.274-1.02,2.274-2.274V26h22.262c-0.031-5.478-0.846-10.926-2.415-16.184h-26.88  C35.281,15.074,34.471,20.522,34.437,26h4.893V45.008z"></path><g><path d="M38.085,79.41c-2.044,0.59-3.958,1.551-5.653,2.839c-1.549,1.175-2.464,3.01-2.464,4.959s0.916,3.793,2.464,4.968   c1.58,1.199,3.358,2.114,5.248,2.709c1.789,0.561,3.629,0.965,5.488,1.209c2.36,0.311,4.739,0.461,7.118,0.461   c2.384,0,4.759-0.15,7.123-0.461c1.864-0.244,3.698-0.648,5.488-1.209c1.895-0.595,3.662-1.51,5.243-2.709   c1.554-1.175,2.468-3.019,2.468-4.968s-0.914-3.784-2.468-4.959C66.445,80.961,64.53,80,62.486,79.41l-0.585,2.854l-0.71,3.458   c-0.21,0.08-0.42,0.155-0.635,0.226c-1.359,0.42-2.749,0.729-4.158,0.915c-2.023,0.264-4.068,0.395-6.113,0.395   c-2.045,0-4.083-0.131-6.112-0.395c-1.41-0.186-2.799-0.495-4.154-0.915c-0.214-0.07-0.425-0.146-0.634-0.226l-0.709-3.458   L38.085,79.41z"></path></g></g><g id="SvgjsG3384" featureKey="text1" fill="url(#SvgjsLinearGradient3386)" transform="matrix(4.0524577796814745,0,0,4.0524577796814745,2.198226135920318,125.03493101961334)"><path d="M14.169 23.62712 c0.10169 0.20339 0.034229 0.37271 -0.20305 0.37271 l-1.9831 0 c-0.16949 0 -0.27119 -0.08458 -0.33898 -0.22017 l-0.91525 -1.9322 l-6.5256 0 l-0.91525 1.9322 c-0.067797 0.13559 -0.18644 0.22017 -0.33898 0.22017 l-2 0 c-0.20339 0 -0.32203 -0.16933 -0.22034 -0.37271 l6.3898 -13.102 c0.067797 -0.11881 0.15238 -0.16966 0.23712 -0.16966 l0.20339 0 c0.10169 0 0.16949 0.050847 0.23729 0.16966 z M5.2375 19.6441 l4.4576 0 l-2.2203 -4.7288 z M18.18630508474576 10.441 l-1.6949 -0.00016552 c-0.18661 0 -0.3222 0.15254 -0.3222 0.32203 l0 12.373 c0 0.49153 0.30525 0.86441 0.83068 0.86441 l1.1864 0 c0.18644 0 0.32203 -0.13543 0.32203 -0.33881 l0 -12.898 c0 -0.16949 -0.15254 -0.32203 -0.32203 -0.32203 z M22.135615254237287 12.966 c-0.69492 0 -1.2542 -0.55932 -1.2542 -1.2542 s0.55932 -1.2712 1.2542 -1.2712 c0.69475 0 1.271 0.57627 1.271 1.2712 s-0.57627 1.2542 -1.271 1.2542 z M23.000015254237287 15.6103 l-1.6951 0 c-0.18644 0 -0.32203 0.15254 -0.32203 0.32203 l0 7.2032 c0 0.49153 0.30508 0.86441 0.83051 0.86441 l1.2034 0 c0.16949 0 0.30508 -0.13543 0.30508 -0.33881 l0 -7.7288 c0 -0.16949 -0.15254 -0.32203 -0.32186 -0.32203 z M32.237320338983054 20.5934 c0.74576 0 1.2375 -0.40695 1.2375 -1.2205 c0 -1.9831 -1.5593 -3.8814 -4.0678 -3.8814 c-2.3729 0 -4.2203 1.8475 -4.2203 4.3051 c0 2.5763 1.949 4.288 4.3219 4.288 c1.5085 0 2.7119 -0.52542 3.4068 -1.5085 c0.11864 -0.15254 0.084746 -0.27119 -0.050847 -0.44068 l-0.38983 -0.5422 c-0.16949 -0.22034 -0.32203 -0.18644 -0.52542 -0.084746 c-0.45763 0.25424 -1.339 0.52542 -2.1695 0.52542 c-1.0169 0 -1.9322 -0.49153 -2.1356 -1.4405 l4.5932 0 z M27.66102033898305 18.796599999999998 c0.084746 -0.54237 0.72881 -1.1695 1.6949 -1.1695 c0.98305 0 1.5932 0.61017 1.678 1.1695 l-3.3729 0 z M43.406745762711864 23.57644 c0.033898 0.22034 -0.033732 0.42356 -0.20322 0.42356 l-1.4237 0 c-0.54237 0 -0.84746 -0.37288 -0.84746 -0.84746 l0 -4.1864 c0 -0.94915 -0.72881 -1.3898 -1.5254 -1.3898 c-0.74576 0 -1.3898 0.33898 -1.9661 0.86441 l0 5.2373 c0 0.16949 -0.15254 0.32186 -0.32203 0.32186 l-1.7119 0 c-0.16949 0 -0.30508 -0.15238 -0.30508 -0.32186 l0 -7.7456 c0 -0.16949 0.13559 -0.32203 0.30508 -0.32203 l1.1695 0 c0.42373 0 0.71169 0.35593 0.81356 0.69492 c0.61017 -0.42373 1.3898 -0.81356 2.3559 -0.81356 c1.7456 0 3.5254 1.1697 3.5254 3.2542 l0 3.7288 c0.016784 0.47458 0.067631 0.79661 0.13543 1.1017 z M52.983086440677965 16.644199999999998 c1.2712 0.74576 2.0847 1.9998 2.0847 3.4744 c0 2.3051 -2.0339 3.8814 -3.9661 3.8814 l-5.5593 0 c-0.18644 0 -0.33898 -0.15238 -0.33898 -0.33881 l0 -12.898 c0 -0.16949 0.13543 -0.32203 0.32203 -0.32203 l4.9831 0 c2.1356 0 3.7966 2.0508 3.7966 3.6271 c0 1.0678 -0.52542 1.9661 -1.322 2.5763 z M50.084786440677966 15.9661 c2.2373 0 2.2542 -3.1864 0 -3.1864 l-2.4576 0 l0 3.1864 l2.4576 0 z M50.49168644067797 21.661 c2.6949 0 2.7288 -3.4237 -0.016949 -3.4237 l-2.8475 0 l0 3.4237 l2.8644 0 z M63.2371 15.9663 c0.22034 0.15254 0.30525 0.27119 0.13592 0.50847 l-0.88136 1.2881 c-0.10169 0.15254 -0.23729 0.20339 -0.44068 0.15254 c-0.23729 -0.084746 -0.47458 -0.20339 -0.98322 -0.20339 c-0.50847 0 -1.4576 0.22034 -1.7119 1.322 l0 4.6441 c0 0.16949 -0.13559 0.32186 -0.32203 0.32186 l-1.7119 0 c-0.16949 0 -0.30508 -0.15238 -0.30508 -0.32186 l0 -7.7456 c0 -0.16949 0.13559 -0.32203 0.30508 -0.32203 l1.1695 0 c0.45763 0 0.76271 0.40678 0.84729 0.76271 c0.50864 -0.44068 1.1697 -0.83068 2.1356 -0.83068 c0.86441 0 1.4746 0.22034 1.7627 0.42373 z M71.45765932203389 20.5934 c0.74576 0 1.2375 -0.40695 1.2375 -1.2205 c0 -1.9831 -1.5593 -3.8814 -4.0678 -3.8814 c-2.3729 0 -4.2203 1.8475 -4.2203 4.3051 c0 2.5763 1.949 4.288 4.3219 4.288 c1.5085 0 2.7119 -0.52542 3.4068 -1.5085 c0.11864 -0.15254 0.084746 -0.27119 -0.050847 -0.44068 l-0.38983 -0.5422 c-0.16949 -0.22034 -0.32203 -0.18644 -0.52542 -0.084746 c-0.45763 0.25424 -1.339 0.52542 -2.1695 0.52542 c-1.0169 0 -1.9322 -0.49153 -2.1356 -1.4405 l4.5932 0 z M66.8813593220339 18.796599999999998 c0.084746 -0.54237 0.72881 -1.1695 1.6949 -1.1695 c0.98305 0 1.5932 0.61017 1.678 1.1695 l-3.3729 0 z M86.55908474576272 15.6102 c0.23729 0 0.35559 0.15254 0.2539 0.38966 l-3.2712 7.7798 c-0.033898 0.11864 -0.16949 0.22017 -0.30492 0.22017 l-0.23729 0 c-0.15254 0 -0.28814 -0.10153 -0.35593 -0.22017 l-2.3388 -4.4068 l-2.3559 4.4068 c-0.067797 0.11864 -0.20339 0.22017 -0.35593 0.22017 l-0.23729 0 c-0.15254 0 -0.27119 -0.10153 -0.32203 -0.22017 l-3.2542 -7.7798 c-0.10153 -0.23712 0.017115 -0.38966 0.25441 -0.38966 l1.7627 0 c0.16949 0 0.32203 0.10169 0.38983 0.23729 l1.6271 4.2712 l1.9492 -4.2034 c0.067797 -0.13559 0.20339 -0.22034 0.38983 -0.22034 l0.28797 0 c0.20339 0 0.3222 0.084746 0.37305 0.22034 l1.9659 4.2034 l1.6271 -4.2712 c0.067797 -0.13559 0.20339 -0.23729 0.37271 -0.23729 l1.7798 0 z"></path></g><g id="SvgjsG3385" featureKey="text3" fill="#c64e4e" transform="matrix(1.2,0,0,1.2,180,233)"><path d=""></path></g>
			</g>
		</svg>
	