
		<svg xmlns="http://www.w3.org/2000/svg" xmlns:xlink="http://www.w3.org/1999/xlink" version="1.1" width="3144.0875219127242" height="2270.886270762123">
			
			<g transform="scale(7.204376095636216) translate(10, 10)">
				<defs id="SvgjsDefs3269"><linearGradient id="SvgjsLinearGradient3274"><stop id="SvgjsStop3275" stop-color="#b88746" offset="0"/><stop id="SvgjsStop3276" stop-color="#fdf5a6" offset="1"/></linearGradient></defs><g id="SvgjsG3270" featureKey="root" fill="#fff" transform="matrix(1,0,0,1,0,0)"/><g id="SvgjsG3271" featureKey="symbol1" fill="#fff" transform="matrix(1.6523130661286123,0,0,1.6523130661286123,124.914569123653,-2.4155793263490475)"><path d="M60.691,85.293c-0.1,0.035-0.21,0.075-0.31,0.105c-1.319,0.415-2.679,0.715-4.058,0.895c-2,0.255-4.02,0.391-6.039,0.391  c-2.02,0-4.033-0.136-6.037-0.391c-1.375-0.18-2.735-0.479-4.06-0.895c-0.1-0.03-0.205-0.07-0.309-0.105l-9.482-46.208  c-2.374-11.551-1.469-23.532,2.61-34.597h34.557c4.078,11.065,4.982,23.046,2.613,34.597L60.691,85.293z M39.33,45.008  c0,1.255,1.02,2.274,2.274,2.274c1.254,0,2.274-1.02,2.274-2.274V26h22.262c-0.031-5.478-0.846-10.926-2.415-16.184h-26.88  C35.281,15.074,34.471,20.522,34.437,26h4.893V45.008z"/><g><path d="M38.085,79.41c-2.044,0.59-3.958,1.551-5.653,2.839c-1.549,1.175-2.464,3.01-2.464,4.959s0.916,3.793,2.464,4.968   c1.58,1.199,3.358,2.114,5.248,2.709c1.789,0.561,3.629,0.965,5.488,1.209c2.36,0.311,4.739,0.461,7.118,0.461   c2.384,0,4.759-0.15,7.123-0.461c1.864-0.244,3.698-0.648,5.488-1.209c1.895-0.595,3.662-1.51,5.243-2.709   c1.554-1.175,2.468-3.019,2.468-4.968s-0.914-3.784-2.468-4.959C66.445,80.961,64.53,80,62.486,79.41l-0.585,2.854l-0.71,3.458   c-0.21,0.08-0.42,0.155-0.635,0.226c-1.359,0.42-2.749,0.729-4.158,0.915c-2.023,0.264-4.068,0.395-6.113,0.395   c-2.045,0-4.083-0.131-6.112-0.395c-1.41-0.186-2.799-0.495-4.154-0.915c-0.214-0.07-0.425-0.146-0.634-0.226l-0.709-3.458   L38.085,79.41z"/></g></g><g id="SvgjsG3272" featureKey="text1" fill="#fff" transform="matrix(4.0524577796814745,0,0,4.0524577796814745,31.19822613592032,125.03493101961334)"><path d="M14.169 23.62712 c0.10169 0.20339 0.034229 0.37271 -0.20305 0.37271 l-1.9831 0 c-0.16949 0 -0.27119 -0.08458 -0.33898 -0.22017 l-0.91525 -1.9322 l-6.5256 0 l-0.91525 1.9322 c-0.067797 0.13559 -0.18644 0.22017 -0.33898 0.22017 l-2 0 c-0.20339 0 -0.32203 -0.16933 -0.22034 -0.37271 l6.3898 -13.102 c0.067797 -0.11881 0.15238 -0.16966 0.23712 -0.16966 l0.20339 0 c0.10169 0 0.16949 0.050847 0.23729 0.16966 z M5.2375 19.6441 l4.4576 0 l-2.2203 -4.7288 z M18.18630508474576 10.441 l-1.6949 -0.00016552 c-0.18661 0 -0.3222 0.15254 -0.3222 0.32203 l0 12.373 c0 0.49153 0.30525 0.86441 0.83068 0.86441 l1.1864 0 c0.18644 0 0.32203 -0.13543 0.32203 -0.33881 l0 -12.898 c0 -0.16949 -0.15254 -0.32203 -0.32203 -0.32203 z M22.135615254237287 12.966 c-0.69492 0 -1.2542 -0.55932 -1.2542 -1.2542 s0.55932 -1.2712 1.2542 -1.2712 c0.69475 0 1.271 0.57627 1.271 1.2712 s-0.57627 1.2542 -1.271 1.2542 z M23.000015254237287 15.6103 l-1.6951 0 c-0.18644 0 -0.32203 0.15254 -0.32203 0.32203 l0 7.2032 c0 0.49153 0.30508 0.86441 0.83051 0.86441 l1.2034 0 c0.16949 0 0.30508 -0.13543 0.30508 -0.33881 l0 -7.7288 c0 -0.16949 -0.15254 -0.32203 -0.32186 -0.32203 z M32.237320338983054 20.5934 c0.74576 0 1.2375 -0.40695 1.2375 -1.2205 c0 -1.9831 -1.5593 -3.8814 -4.0678 -3.8814 c-2.3729 0 -4.2203 1.8475 -4.2203 4.3051 c0 2.5763 1.949 4.288 4.3219 4.288 c1.5085 0 2.7119 -0.52542 3.4068 -1.5085 c0.11864 -0.15254 0.084746 -0.27119 -0.050847 -0.44068 l-0.38983 -0.5422 c-0.16949 -0.22034 -0.32203 -0.18644 -0.52542 -0.084746 c-0.45763 0.25424 -1.339 0.52542 -2.1695 0.52542 c-1.0169 0 -1.9322 -0.49153 -2.1356 -1.4405 l4.5932 0 z M27.66102033898305 18.796599999999998 c0.084746 -0.54237 0.72881 -1.1695 1.6949 -1.1695 c0.98305 0 1.5932 0.61017 1.678 1.1695 l-3.3729 0 z M43.406745762711864 23.57644 c0.033898 0.22034 -0.033732 0.42356 -0.20322 0.42356 l-1.4237 0 c-0.54237 0 -0.84746 -0.37288 -0.84746 -0.84746 l0 -4.1864 c0 -0.94915 -0.72881 -1.3898 -1.5254 -1.3898 c-0.74576 0 -1.3898 0.33898 -1.9661 0.86441 l0 5.2373 c0 0.16949 -0.15254 0.32186 -0.32203 0.32186 l-1.7119 0 c-0.16949 0 -0.30508 -0.15238 -0.30508 -0.32186 l0 -7.7456 c0 -0.16949 0.13559 -0.32203 0.30508 -0.32203 l1.1695 0 c0.42373 0 0.71169 0.35593 0.81356 0.69492 c0.61017 -0.42373 1.3898 -0.81356 2.3559 -0.81356 c1.7456 0 3.5254 1.1697 3.5254 3.2542 l0 3.7288 c0.016784 0.47458 0.067631 0.79661 0.13543 1.1017 z M52.983086440677965 16.644199999999998 c1.2712 0.74576 2.0847 1.9998 2.0847 3.4744 c0 2.3051 -2.0339 3.8814 -3.9661 3.8814 l-5.5593 0 c-0.18644 0 -0.33898 -0.15238 -0.33898 -0.33881 l0 -12.898 c0 -0.16949 0.13543 -0.32203 0.32203 -0.32203 l4.9831 0 c2.1356 0 3.7966 2.0508 3.7966 3.6271 c0 1.0678 -0.52542 1.9661 -1.322 2.5763 z M50.084786440677966 15.9661 c2.2373 0 2.2542 -3.1864 0 -3.1864 l-2.4576 0 l0 3.1864 l2.4576 0 z M50.49168644067797 21.661 c2.6949 0 2.7288 -3.4237 -0.016949 -3.4237 l-2.8475 0 l0 3.4237 l2.8644 0 z M63.2371 15.9663 c0.22034 0.15254 0.30525 0.27119 0.13592 0.50847 l-0.88136 1.2881 c-0.10169 0.15254 -0.23729 0.20339 -0.44068 0.15254 c-0.23729 -0.084746 -0.47458 -0.20339 -0.98322 -0.20339 c-0.50847 0 -1.4576 0.22034 -1.7119 1.322 l0 4.6441 c0 0.16949 -0.13559 0.32186 -0.32203 0.32186 l-1.7119 0 c-0.16949 0 -0.30508 -0.15238 -0.30508 -0.32186 l0 -7.7456 c0 -0.16949 0.13559 -0.32203 0.30508 -0.32203 l1.1695 0 c0.45763 0 0.76271 0.40678 0.84729 0.76271 c0.50864 -0.44068 1.1697 -0.83068 2.1356 -0.83068 c0.86441 0 1.4746 0.22034 1.7627 0.42373 z M71.45765932203389 20.5934 c0.74576 0 1.2375 -0.40695 1.2375 -1.2205 c0 -1.9831 -1.5593 -3.8814 -4.0678 -3.8814 c-2.3729 0 -4.2203 1.8475 -4.2203 4.3051 c0 2.5763 1.949 4.288 4.3219 4.288 c1.5085 0 2.7119 -0.52542 3.4068 -1.5085 c0.11864 -0.15254 0.084746 -0.27119 -0.050847 -0.44068 l-0.38983 -0.5422 c-0.16949 -0.22034 -0.32203 -0.18644 -0.52542 -0.084746 c-0.45763 0.25424 -1.339 0.52542 -2.1695 0.52542 c-1.0169 0 -1.9322 -0.49153 -2.1356 -1.4405 l4.5932 0 z M66.8813593220339 18.796599999999998 c0.084746 -0.54237 0.72881 -1.1695 1.6949 -1.1695 c0.98305 0 1.5932 0.61017 1.678 1.1695 l-3.3729 0 z M86.55908474576272 15.6102 c0.23729 0 0.35559 0.15254 0.2539 0.38966 l-3.2712 7.7798 c-0.033898 0.11864 -0.16949 0.22017 -0.30492 0.22017 l-0.23729 0 c-0.15254 0 -0.28814 -0.10153 -0.35593 -0.22017 l-2.3388 -4.4068 l-2.3559 4.4068 c-0.067797 0.11864 -0.20339 0.22017 -0.35593 0.22017 l-0.23729 0 c-0.15254 0 -0.27119 -0.10153 -0.32203 -0.22017 l-3.2542 -7.7798 c-0.10153 -0.23712 0.017115 -0.38966 0.25441 -0.38966 l1.7627 0 c0.16949 0 0.32203 0.10169 0.38983 0.23729 l1.6271 4.2712 l1.9492 -4.2034 c0.067797 -0.13559 0.20339 -0.22034 0.38983 -0.22034 l0.28797 0 c0.20339 0 0.3222 0.084746 0.37305 0.22034 l1.9659 4.2034 l1.6271 -4.2712 c0.067797 -0.13559 0.20339 -0.23729 0.37271 -0.23729 l1.7798 0 z"/></g><g id="SvgjsG3273" featureKey="text3" fill="#fff" transform="matrix(2.9014661108482662,0,0,2.9014661108482662,3.6072955196883303,206.4225791685196)"><path d="M4.74 10.04 l4.52 0 q-1.38 1.06 -3.8 6.56 q-0.62 1.4 -1.41 3.67 t-0.79 3.31 q0 0.28 0.08 0.42 l-2.58 0 q0.56 -2.42 2.36 -6.72 q2.4 -5.72 3.1 -6.5 q-1.7 0.04 -3.45 0.69 t-2.03 1.55 q-0.02 0.06 -0.08 0.06 q-0.18 0 -0.18 -0.26 q0 -0.04 0.04 -0.2 q0.38 -1.1 1.1 -1.7 t1.41 -0.74 t1.71 -0.14 z M14.207453374910482 12.54 q-0.98 0.68 -2.2 3.48 l2.02 0 l0.02 0.02 q0 0.1 -0.22 0.35 t-0.38 0.25 l-1.72 0 q-1.58 3.92 -1.58 5.04 q0 0.76 0.48 0.76 q0.7 0 1.64 -1.2 q0.22 -0.26 0.58 -0.88 q0.92 -1.48 0.96 -1.48 q0.12 0 0.12 0.32 q-0.02 0.76 -1.66 2.96 q-0.54 0.72 -1.3 1.34 t-1.38 0.62 q-1.14 0 -1.14 -1.6 q0 -1.34 0.64 -3.08 l0 -0.02 q-0.38 0.7 -0.65 1.04 t-0.31 0.34 q-0.08 0 -0.08 -0.25 t0.27 -0.81 t0.74 -1.46 t0.77 -1.64 l-1.34 0 q-0.06 0 -0.06 -0.09 t0.15 -0.31 t0.23 -0.22 l1.52 0 q1.44 -3.46 2.92 -3.46 q0.86 0 0.96 -0.02 z M19.074906749820965 11 q-0.56 1.3 -1.51 2.63 t-1.45 1.33 q-0.14 0 -0.28 -0.08 q1.22 -1.82 1.54 -3.92 q0.02 -0.26 0.86 -0.26 t0.84 0.26 l0 0.04 z M27.522360124731446 19.94 q-1.5 2.5 -2.72 3.48 t-3.16 0.98 q-1.12 0 -1.88 -0.43 t-0.76 -1.27 q0 -0.48 0.28 -0.88 t0.77 -0.4 t0.63 0.36 q-0.38 0.38 -0.38 0.88 q0 1 1.12 1 q0.66 0 1.15 -0.46 t0.49 -1.01 t-0.24 -0.97 t-0.58 -0.74 l-0.68 -0.64 q-0.82 -0.78 -0.82 -1.79 t0.77 -1.7 t2.11 -0.69 q0.84 0 1.42 0.3 t0.58 0.93 t-0.38 1.09 t-1.03 0.46 t-0.65 -0.6 q0 -0.14 0.46 -0.42 t0.46 -0.58 t-0.25 -0.45 t-0.71 -0.15 t-0.89 0.32 t-0.43 0.84 t0.44 0.98 t0.96 0.78 t0.96 0.89 t0.44 1.2 t-0.29 1.13 t-0.69 0.8 q1.12 -0.48 2.38 -2.4 q0.12 -0.16 0.42 -0.66 q0.7 -1.26 0.78 -1.26 q0.12 0 0.12 0.37 t-0.2 0.71 z  M38.0972668745524 17.740000000000002 q-1.5 2.86 -1.66 2.86 q-0.1 0 -0.1 -0.33 t0.12 -0.57 q0.98 -1.68 1.48 -3.2 q0.08 -0.26 0.18 -0.35 t0.34 -0.09 l0.16 0 l1.76 0.14 q0.12 -0.3 0.41 -1.1 t0.45 -1.22 t0.48 -1.14 t0.58 -1.14 t0.68 -0.95 t0.84 -0.81 q1.02 -0.68 2.2 -0.68 q2.08 0 2.08 1.54 q0 0.58 -0.33 1.04 t-0.87 0.46 q-0.26 0 -0.45 -0.14 t-0.19 -0.33 t0.3 -0.62 t0.3 -0.74 t-0.25 -0.51 t-0.59 -0.2 q-0.6 0 -1.2 0.64 t-1.1 1.68 q-0.88 1.82 -1.58 3.88 q-0.02 0.1 -0.04 0.14 q-0.06 0.16 -0.1 0.28 q3.16 0 3.6 -0.28 q-0.26 0.64 -1.12 0.84 t-2.76 0.24 l-0.58 1.68 q-1.24 3.56 -1.92 4.89 t-1.29 2.29 t-1.21 1.58 q-1.36 1.44 -2.82 1.44 q-0.98 0 -1.45 -0.46 t-0.47 -1.03 t0.26 -0.95 t0.58 -0.38 t0.48 0.15 t0.16 0.32 t-0.21 0.54 t-0.21 0.63 t0.14 0.44 t0.5 0.18 t0.85 -0.35 t0.95 -1.01 q1.72 -2.54 4.54 -9.94 l-0.56 0 q-1.02 0 -1.36 0.64 z M52.224720249462884 15.94 l0.96 0.02 q0.3 0 0.38 -0.02 q-0.56 0.38 -1.61 2.65 t-1.05 3.27 q0 0.6 0.4 0.6 q0.26 0 0.71 -0.34 t0.77 -0.75 t0.69 -1.01 t0.64 -1.04 t0.31 -0.44 q0.12 0 0.12 0.38 t-0.22 0.72 q-2.48 4.14 -4.14 4.14 q-1.12 0 -1.12 -1.66 q0 -0.52 0.08 -1 q-1.88 2.66 -3.58 2.66 q-0.5 0 -0.81 -0.42 t-0.31 -1.24 t0.58 -2.71 t1.42 -3.11 q0.2 -0.3 0.43 -0.37 t0.87 -0.07 l0.96 0 q-0.5 0.68 -1.08 1.84 q-1.32 2.74 -1.32 4.02 q0 0.76 0.55 0.76 t1.31 -1.06 t1.63 -2.75 t1.01 -1.91 q0.74 -1.16 1.42 -1.16 z M64.73217362437336 19.98 q-0.74 1.24 -1.35 2.07 t-1.39 1.45 t-1.42 0.62 q-1.18 0 -1.18 -1.3 t1.5 -5.22 q0.08 -0.18 0.08 -0.38 q0 -0.42 -0.53 -0.42 t-1.04 0.33 t-0.93 0.94 t-0.76 1.24 t-0.63 1.45 t-0.46 1.37 t-0.34 1.18 t-0.19 0.69 l-1.94 0 q0 -0.42 1.76 -4.82 q0.72 -2.06 0.72 -2.88 q0 -0.2 -0.06 -0.3 l0.84 0 q0.7 0 0.9 0.14 t0.2 0.38 t-0.22 0.98 q1.68 -1.6 3.38 -1.6 q1.14 0 1.14 1.04 q0 0.34 -0.1 0.68 t-0.5 1.36 q-0.88 2.24 -0.88 3 q0 0.48 0.36 0.48 q0.26 0 0.73 -0.36 t0.78 -0.75 t0.68 -0.98 t0.63 -1.03 t0.3 -0.44 q0.12 0 0.12 0.37 t-0.2 0.71 z  M79.58708037419433 12.54 q-0.98 0.68 -2.2 3.48 l2.02 0 l0.02 0.02 q0 0.1 -0.22 0.35 t-0.38 0.25 l-1.72 0 q-1.58 3.92 -1.58 5.04 q0 0.76 0.48 0.76 q0.7 0 1.64 -1.2 q0.22 -0.26 0.58 -0.88 q0.92 -1.48 0.96 -1.48 q0.12 0 0.12 0.32 q-0.02 0.76 -1.66 2.96 q-0.54 0.72 -1.3 1.34 t-1.38 0.62 q-1.14 0 -1.14 -1.6 q0 -1.34 0.64 -3.08 l0 -0.02 q-0.38 0.7 -0.65 1.04 t-0.31 0.34 q-0.08 0 -0.08 -0.25 t0.27 -0.81 t0.74 -1.46 t0.77 -1.64 l-1.34 0 q-0.06 0 -0.06 -0.09 t0.15 -0.31 t0.23 -0.22 l1.52 0 q1.44 -3.46 2.92 -3.46 q0.86 0 0.96 -0.02 z M89.67453374910481 19.08 q0.06 -0.12 0.12 -0.12 q0.12 0 0.12 0.3 q0 0.96 -0.77 1.59 t-1.44 0.63 t-1.15 -0.38 q-0.72 1.42 -1.71 2.24 t-2.55 0.82 q-1 0 -1.63 -0.61 t-0.63 -1.86 t0.57 -2.58 t1.72 -2.29 t2.57 -0.96 q2.38 0 2.38 2.52 q0 0.96 -0.42 2.02 q0.3 0.42 0.86 0.42 q1.04 0 1.96 -1.74 z M86.3345337491048 17.84 q-0.08 -1.06 -0.96 -1.06 q-1.38 0 -2.7 2.68 q-0.72 1.48 -0.72 2.68 t1.04 1.26 q0.86 0 1.59 -0.91 t1.23 -2.01 q-0.68 -0.58 -0.68 -1.46 q0 -0.54 0.29 -0.86 t0.79 -0.32 l0.12 0 z  M108.08944049892577 18.88 q0.12 0 0.12 0.37 t-0.12 0.57 l-0.44 0.74 q-0.98 1.62 -1.6 2.16 q-0.68 0.62 -1.32 0.62 q-0.84 0 -1.12 -0.78 q-0.82 0.82 -1.66 1.23 t-1.88 0.41 t-1.47 -0.33 t-0.43 -1.1 t0.24 -1.75 q0.62 -2.64 2.08 -6.21 t2.3 -3.79 q0.26 -0.06 0.95 -0.07 t0.83 -0.03 q-0.78 0.58 -2.11 3.4 t-2.01 5.42 q2.16 -3.82 4.08 -3.82 q1.36 0 1.36 1.95 t-1.64 3.97 q0.02 0.34 0.2 0.54 t0.46 0.2 t0.61 -0.25 t0.5 -0.44 t0.45 -0.55 t0.66 -0.97 t0.65 -1.05 t0.31 -0.44 z M103.64944049892576 17.62 q-0.06 -0.02 -0.31 -0.02 t-0.94 0.52 t-1.61 1.99 t-0.92 2.42 t0.58 0.95 q1.06 0 2.28 -2.05 t1.22 -3.23 q0 -0.5 -0.3 -0.58 z M114.31689387383624 15.96 l1.02 0.02 l0.2 0 q-0.3 0.22 -0.85 1.3 t-0.82 1.63 t-0.6 1.48 t-0.33 1.51 t0.4 0.58 q0.26 -0.02 0.73 -0.37 t0.78 -0.74 t0.68 -1 t0.64 -1.06 t0.31 -0.45 q0.14 0 0.14 0.37 t-0.2 0.71 q-0.86 1.42 -1.42 2.18 t-1.35 1.39 t-1.43 0.63 q-1.14 0 -1.14 -1.68 q0 -1.14 0.44 -2.58 t1.3 -2.78 q-0.7 0.56 -1.4 0.56 q-0.22 0 -0.46 -0.1 q-1.42 2.8 -1.53 2.8 t-0.11 -0.33 t0.25 -0.92 t0.54 -1.13 t0.31 -0.6 q-0.72 -0.36 -0.72 -1.16 q0 -0.4 0.25 -0.72 t0.69 -0.32 t0.72 0.28 q-0.04 0.12 -0.04 0.36 q0 0.54 0.39 0.85 t0.95 0.31 q0.16 0 0.24 -0.02 q0.7 -1 1.42 -1 z M125.36434724874672 18.8 q0.12 0 0.12 0.39 t-0.32 0.93 t-0.63 1.02 t-0.83 1.12 t-1.02 1.02 q-1.26 0.92 -2.53 0.92 t-2.05 -0.65 t-0.78 -1.99 q0 -2.04 1.5 -3.78 t3.5 -1.74 q0.9 0 1.44 0.47 t0.54 1.13 q0 1.12 -1.06 1.8 t-2.5 0.68 q-0.84 0 -1.24 -0.22 q-0.38 1.02 -0.38 1.8 q0 1.68 1.42 1.68 q0.84 0 1.73 -0.65 t1.52 -1.46 t1.43 -2.33 q0.08 -0.14 0.14 -0.14 z M123.24434724874672 17.22 q0 -0.58 -0.56 -0.58 q-0.78 0 -1.74 0.96 t-0.96 1.56 q0 0.4 0.76 0.4 t1.59 -0.74 t0.91 -1.6 z M133.6518006236572 16.44 l1.08 0.02 q0.34 0 0.4 -0.02 q-0.74 0.44 -1.76 3.36 q-0.58 1.54 -0.58 2.35 t0.6 0.81 q0.7 0 1.43 -0.81 t1.1 -1.55 t0.59 -1.34 q-0.1 -0.5 -0.1 -1.22 t0.37 -1.4 t0.93 -0.68 q0.64 0 0.64 0.9 q0 0.8 -0.2 1.26 t-0.4 0.85 t-0.28 0.55 q0 0.58 0.31 0.94 t0.71 0.36 q0.94 0 1.9 -1.74 q0.06 -0.1 0.11 -0.1 t0.05 0.28 q0 1.08 -0.74 1.66 t-1.48 0.58 q-1.08 0 -1.42 -1.12 l-0.06 -0.2 q-1.24 2.16 -2.19 3.06 t-2.25 0.9 q-1.68 0 -1.68 -1.9 q0 -0.34 0.08 -0.78 q-1.9 2.66 -3.72 2.66 q-0.5 0 -0.83 -0.44 t-0.33 -1.23 t0.56 -2.45 q1.06 -3.2 2.32 -3.74 q0.6 -0.26 1.68 -0.26 q0.06 0 0.06 0.08 q0 -0.06 -0.14 0.14 q-0.76 1.08 -1.56 2.86 q-0.16 0.4 -0.5 1.4 t-0.34 1.67 t0.5 0.67 q1 0 2.9 -3.64 q0.8 -1.54 0.82 -1.56 q0.74 -1.18 1.42 -1.18 z"/></g>
			</g>
		</svg>
	